<svg xmlns="http://www.w3.org/2000/svg" viewBox="0 0 340 355" role="img" aria-label="Moyee Coffee M mark">
  
  <title>Moyee Coffee — M mark</title>
  <path fill-rule="evenodd" fill="#272727" d="&#xA;    M 34,340 Q 14,340 14,318&#xA;    L 72,20 Q 82,6 93,20&#xA;    L 172,142 Q 174,149 178,142&#xA;    L 247,20 Q 258,6 268,20&#xA;    L 326,318 Q 326,340 306,340 Z&#xA;    M 102,154 Q 92,148 82,154 L 22,325 Q 22,336 32,336 L 152,336 Q 162,336 162,325 Z&#xA;    M 238,154 Q 248,148 258,154 L 318,325 Q 318,336 308,336 L 188,336 Q 178,336 178,325 Z&#xA;  "></path>
</svg>